# xmcd CD database file
#
# Track frame offsets:
#	150
#	19620
#	35670
#	55738
#	79347
#	107817
#	140798
#	164049
#	182488
#	197254
#	221209
#
# Disc length: 3417 seconds
#
# Revision: 0
# Processed by: cddbd v1.5.2PL0 Copyright (c) Steve Scherf et al.
# Submitted via: CDex 1.70beta2
#
DISCID=9d0d570b
DTITLE=Hugo Race and True Spirit - Live In Wolow Jail 
DYEAR=2009
DGENRE=Blues
TTITLE0=High On Love
TTITLE1=On The Bright Side
TTITLE2=We Create Tomorrow
TTITLE3=Makes Me Mean
TTITLE4=Dumb Down
TTITLE5=Girl Called Sunset
TTITLE6=Is Your Love Strong
TTITLE7=When Midnight Comes
TTITLE8=Coming Clean
TTITLE9=53rd State
TTITLE10=Mystery World
EXTD=YEAR: 2009
EXTT0=
EXTT1=
EXTT2=
EXTT3=
EXTT4=
EXTT5=
EXTT6=
EXTT7=
EXTT8=
EXTT9=
EXTT10=
PLAYORDER=
